<svg width="104" height="30" viewBox="0 0 104 30" fill="none" xmlns="http://www.w3.org/2000/svg">
<path d="M53.016 22H50.28L43.032 13.936V22H40.8V5.2H43.032V12.784L50.04 5.2H52.776L45.36 13.36L53.016 22ZM56.8751 12.016C57.5631 10.528 58.8111 9.784 60.6191 9.784V11.968C59.5951 11.92 58.7151 12.192 57.9791 12.784C57.2431 13.376 56.8751 14.328 56.8751 15.64V22H54.7871V10H56.8751V12.016ZM63.4699 16.96C63.6779 18.032 64.1659 18.864 64.9339 19.456C65.7179 20.048 66.6779 20.344 67.8139 20.344C69.3979 20.344 70.5499 19.76 71.2699 18.592L73.0459 19.6C71.8779 21.408 70.1179 22.312 67.7659 22.312C65.8619 22.312 64.3099 21.72 63.1099 20.536C61.9259 19.336 61.3339 17.824 61.3339 16C61.3339 14.192 61.9179 12.688 63.0859 11.488C64.2539 10.288 65.7659 9.688 67.6219 9.688C69.3819 9.688 70.8139 10.312 71.9179 11.56C73.0379 12.792 73.5979 14.28 73.5979 16.024C73.5979 16.328 73.5739 16.64 73.5259 16.96H63.4699ZM67.6219 11.656C66.5019 11.656 65.5739 11.976 64.8379 12.616C64.1019 13.24 63.6459 14.08 63.4699 15.136H71.4859C71.3099 14 70.8619 13.136 70.1419 12.544C69.4219 11.952 68.5819 11.656 67.6219 11.656ZM77.4386 16.96C77.6466 18.032 78.1346 18.864 78.9026 19.456C79.6866 20.048 80.6466 20.344 81.7826 20.344C83.3666 20.344 84.5186 19.76 85.2386 18.592L87.0146 19.6C85.8466 21.408 84.0866 22.312 81.7346 22.312C79.8306 22.312 78.2786 21.72 77.0786 20.536C75.8946 19.336 75.3026 17.824 75.3026 16C75.3026 14.192 75.8866 12.688 77.0546 11.488C78.2226 10.288 79.7346 9.688 81.5906 9.688C83.3506 9.688 84.7826 10.312 85.8866 11.56C87.0066 12.792 87.5666 14.28 87.5666 16.024C87.5666 16.328 87.5426 16.64 87.4946 16.96H77.4386ZM81.5906 11.656C80.4706 11.656 79.5426 11.976 78.8066 12.616C78.0706 13.24 77.6146 14.08 77.4386 15.136H85.4546C85.2786 14 84.8306 13.136 84.1106 12.544C83.3906 11.952 82.5506 11.656 81.5906 11.656ZM99.8794 5.2H101.967V22H99.8794V19.936C98.8394 21.52 97.3274 22.312 95.3434 22.312C93.6634 22.312 92.2314 21.704 91.0474 20.488C89.8634 19.256 89.2714 17.76 89.2714 16C89.2714 14.24 89.8634 12.752 91.0474 11.536C92.2314 10.304 93.6634 9.688 95.3434 9.688C97.3274 9.688 98.8394 10.48 99.8794 12.064V5.2ZM95.6074 20.296C96.8234 20.296 97.8394 19.888 98.6554 19.072C99.4714 18.24 99.8794 17.216 99.8794 16C99.8794 14.784 99.4714 13.768 98.6554 12.952C97.8394 12.12 96.8234 11.704 95.6074 11.704C94.4074 11.704 93.3994 12.12 92.5834 12.952C91.7674 13.768 91.3594 14.784 91.3594 16C91.3594 17.216 91.7674 18.24 92.5834 19.072C93.3994 19.888 94.4074 20.296 95.6074 20.296Z" fill="#1E255E"/>
<rect width="30" height="30" rx="6" fill="#1E255E"/>
<path d="M9.70972 21.6781C9.15743 21.6781 8.70972 21.2304 8.70972 20.6781V9.22583C8.70972 8.67355 9.15743 8.22583 9.70972 8.22583H10.7614C11.3136 8.22583 11.7614 8.67355 11.7614 9.22583V20.6781C11.7614 21.2304 11.3136 21.6781 10.7614 21.6781H9.70972ZM12.7494 15.4557C12.6702 15.2417 12.6667 15.007 12.7393 14.7906L14.714 8.90761C14.8507 8.50029 15.2323 8.22583 15.662 8.22583H16.5648C17.2471 8.22583 17.729 8.89397 17.5137 9.54137L15.7668 14.7949C15.6957 15.0086 15.6989 15.2401 15.7758 15.4519L17.5504 20.3367C17.7873 20.9888 17.3044 21.6781 16.6105 21.6781H15.7474C15.3289 21.6781 14.9547 21.4175 14.8095 21.0251L12.7494 15.4557Z" fill="white"/>
<path d="M19.0117 20.3329C19.0117 19.7564 19.293 19.3272 19.8558 19.0453C20.101 18.93 20.3608 18.8724 20.6349 18.8724C21.2842 18.8724 21.7603 19.1222 22.0633 19.6219C22.1932 19.8396 22.2581 20.0767 22.2581 20.3329C22.2581 20.9222 21.9695 21.345 21.3924 21.6013C21.1471 21.7166 20.8946 21.7742 20.6349 21.7742C19.9712 21.7742 19.495 21.518 19.2065 21.0055C19.0766 20.7877 19.0117 20.5635 19.0117 20.3329Z" fill="white"/>
</svg>
